<?xml version="1.0" encoding="utf-8"?>
<!-- Generator: Adobe Illustrator 19.2.1, SVG Export Plug-In . SVG Version: 6.00 Build 0)  -->
<svg version="1.1" id="layer" xmlns="http://www.w3.org/2000/svg" xmlns:xlink="http://www.w3.org/1999/xlink" x="0px" y="0px"
	 viewBox="0 0 652 652" style="enable-background:new 0 0 652 652;" xml:space="preserve">
<style type="text/css">
	.st0{fill:#443F35;}
	.st1{fill:#6A8237;}
</style>
<path class="st0" d="M38.2,388.1H20v-30.6h18.5v-39.7h33.5v39.7h18.5v30.6H72v84.2H38.2V388.1L38.2,388.1z M111,472.4h33.5v-52.6
	c0-5.4,0-9.1,0.3-11c-0.1-2.4,0.2-4.9,0.8-7.2c0.2-1.6,0.5-3.1,1.1-4.6c0.4-1.1,1-2.2,1.6-3.2c1-1.5,2.2-2.8,3.5-4
	c1.5-1.2,3.1-2.3,4.8-3.2c1.9-0.8,3.9-1.5,5.9-1.9c2.3-0.5,4.6-0.8,7-0.8c3.2,0,6.3,0.4,9.4,1.3c1.9,0.7,3.6,1.9,4.8,3.5
	c1.1,1.6,2.2,4.3,3,8.3c0.9,5.4,1.4,10.9,1.3,16.4v59h33.5V404c0-3.5,0-7.8-0.3-12.6c-0.1-2.9-0.5-5.8-1.1-8.6
	c-0.5-2.1-1.1-4.2-1.9-6.2c-0.7-1.9-1.7-3.7-3-5.4c-1.7-2.8-3.9-5.4-6.4-7.5c-2.6-2.1-5.5-3.9-8.6-5.4c-3.3-1.4-6.7-2.4-10.2-3.2
	c-3.9-0.8-7.8-1.1-11.8-1.1c-4.7,0.1-9.3,0.5-13.9,1.3c-4.2,0.9-8.2,2.2-12.1,4c-3.7,1.9-7.1,4.2-10.2,7v-75.7h-32.2v181.6
	L111,472.4L111,472.4z M276,357.3h-33.5v115.1H276v-51c0-4.6,0.3-9.9,0.8-15.8c0.3-4.9,1.6-9.8,3.8-14.2c2.4-4.8,7-7,13.1-7
	c4,0,7,0.5,9.1,1.9c2.2,1.1,4.6,3,7.5,5.1l12.9-29.2c-7.2-4-14.8-6.2-22.3-6.2h-3c-8.9,0.8-16.1,4-22,10.2L276,357.3L276,357.3z
	 M443.4,484.4l4.3-8.6l55.3-111.3l3.5-6.7h-37l-1.3,3l-22.8,52.6l-1.6,4.4l-0.3-0.8l-1.3-3.5l-22.8-52.9l-1.3-3h-37l3.2,6.7
	l55.2,111.3L443.4,484.4L443.4,484.4z M539,397.5c1.4-3.5,3.6-6.6,6.4-9.1c3.8-3.2,9.1-4.6,16.1-4.6c4.8,0,9.6,1,13.9,3
	c4,2.2,7,5.6,8.6,10.7L539,397.5L539,397.5z M620,423.3v-9.4c0.1-8.1-1.1-16.1-3.4-23.9c-2.4-7.5-6.6-14.4-12.1-20.1
	c-10.5-10.7-24.7-16.1-42.9-16.1c-17.4,0-31.9,5.9-43.2,17.4c-11.3,11.5-16.9,26.3-16.9,44c0,18.5,5.4,33.3,16.4,44.5
	c10.7,11.3,25.5,16.9,43.7,16.9c12.6,0,23.6-2.7,33.3-8.3c4.9-2.9,9.4-6.5,13.1-10.7c2.2-2.4,4.3-5,6.2-7.8c1.9-2.8,3.6-5.6,5.1-8.6
	l-27.6-14.8c-5.9,13.1-15,19.8-27.4,20.1h-0.5c-16.1,0-25.2-7.8-27.4-23.1H620L620,423.3L620,423.3z M385.1,306
	c-17.7-1.3-32.7,19.3-32.7,19.3s-4.8-18.2-36.5-26.6c12.9,4.3,19.3,42.1,19.3,42.1v131.5h33.5V343.9
	C369.3,337.4,371.7,312.5,385.1,306L385.1,306z"/>
<path class="st1" d="M394.8,224.7c0,0,9.9,23.1,2.4,43.5c-7.5,20.4-29.5,30.3-29.5,30.3s-9.9-23.1-2.4-43.5
	C372.8,234.7,394.8,224.7,394.8,224.7L394.8,224.7z M446,198.5c0,0,4,21.8-6.2,38.4c-10.2,16.4-30.6,21.2-30.6,21.2
	s-4-21.8,6.2-38.4C425.7,203.3,446,198.5,446,198.5z M378.4,161.4c0,0,10.2,19.9,5.4,38.4c-4.8,18.8-23.1,29.3-23.1,29.3
	s-10.2-19.9-5.4-38.4C360.5,172.2,378.4,161.4,378.4,161.4L378.4,161.4z M246.4,219.9c0,0,21.5-5.4,38.6,3.8
	c17.2,9.1,23.1,29.2,23.1,29.2s-21.5,5.4-38.6-3.8C252.6,240,246.4,219.9,246.4,219.9L246.4,219.9z M409.6,177.8
	c0,0,5.9,13.9,1.9,26.6c-4.3,12.6-17.2,18.8-17.2,18.8s-5.9-13.9-1.9-26.6C396.7,184.2,409.6,177.8,409.6,177.8L409.6,177.8z
	 M280.5,186.6c0,0,14.8,2.2,23.1,12.3c8.3,9.9,7,24.1,7,24.1s-14.8-2.2-23.1-12.3S280.5,186.6,280.5,186.6z M322.9,158.2
	c0,0,15.8,10.5,20.1,26.6c4.3,16.1-5.1,31.4-5.1,31.4s-15.9-10.5-20.1-26.6C313.8,173.8,322.9,158.2,322.9,158.2L322.9,158.2z
	 M467.5,255.6c0,0-4.3,24.6-24.4,36.8c-19.9,12.1-48,7.2-48,7.2s4.3-24.6,24.4-36.8C439.6,250.5,467.5,255.6,467.5,255.6
	L467.5,255.6z M435,323.7c0,0-14.5,9.1-28.4,5.6c-13.9-3.5-22.5-18.2-22.5-18.2s14.5-9.1,28.4-5.6C426.4,309,435,323.7,435,323.7
	L435,323.7z M322.4,212.1c0,0,25,13.7,31.9,38.9c6.9,25.2-6.4,52-6.4,52s-25-13.7-31.9-38.9C308.9,239.2,322.4,212.1,322.4,212.1
	L322.4,212.1z M237.6,269.8c0,0,24.6-12.9,48-6.7s36.5,29,36.5,29s-24.6,12.9-48,6.7C250.7,292.6,237.6,269.8,237.6,269.8
	L237.6,269.8z M267.1,321.3c0,0,10.7-15,26.6-17.4c15.8-2.2,30.3,9.4,30.3,9.4s-10.7,15-26.6,17.4
	C281.6,332.9,267.1,321.3,267.1,321.3z"/>
</svg>
